<svg width="118" height="23" viewBox="0 0 118 23" fill="none" xmlns="http://www.w3.org/2000/svg">
<path d="M5.48763 22.16L0.655625 7.952L4.04763 7.728L4.43163 10.64L7.02363 19.504L9.87163 11.152L8.87963 7.92L12.1756 7.728L12.4956 10.64L14.6716 19.12L17.5196 11.12L17.8716 7.952H21.1996L15.6316 21.968L13.2316 22.16L10.8316 14.352L8.04763 21.968L5.48763 22.16ZM23.6841 22L24.1321 15.664V11.184L23.6521 7.888L26.9481 7.568L26.5961 13.84V15.696L26.9481 22H23.6841ZM23.2361 2.704C23.8975 1.78667 24.6121 1.072 25.3801 0.559999C26.2121 1.17867 26.9268 1.89333 27.5241 2.704C26.9055 3.6 26.1908 4.31467 25.3801 4.848C24.5481 4.31467 23.8335 3.6 23.2361 2.704ZM31.2526 22L31.7006 15.664V3.856L31.2206 0.559999L34.6766 0.24L34.3246 6.512V15.696L34.6766 22H31.2526ZM47.6106 20.88C46.2453 21.9467 44.816 22.48 43.3226 22.48C41.8506 22.48 40.6773 21.8827 39.8026 20.688C38.928 19.4933 38.4906 17.872 38.4906 15.824C38.4906 13.3067 39.152 11.2907 40.4746 9.776C41.8186 8.24 43.5893 7.472 45.7866 7.472C46.4053 7.472 46.9813 7.51467 47.5146 7.6V3.92L47.0346 0.559999L50.4906 0.24L50.1386 6.576V18.416L50.7146 22.032L47.7386 22.48L47.6106 20.88ZM44.2826 20.272C45.264 20.272 46.32 20.016 47.4506 19.504V9.776C46.7466 9.54133 46 9.424 45.2106 9.424C44.4213 9.424 43.568 9.53067 42.6506 9.744C41.84 10.832 41.4346 12.5173 41.4346 14.8C41.4346 18.448 42.384 20.272 44.2826 20.272ZM54.8151 22L55.2631 15.664V11.184L54.7831 7.888L58.0151 7.568L57.8871 9.968C58.6338 9.072 59.2951 8.432 59.8711 8.048C60.4471 7.664 61.0445 7.472 61.6631 7.472C62.3031 7.472 62.9325 7.61067 63.5511 7.888L62.6871 10.64L59.8071 9.776C59.0178 10.48 58.3245 11.376 57.7271 12.464V15.696L58.0791 22H54.8151ZM71.2626 22.48C69.2786 22.48 67.732 21.8507 66.6226 20.592C65.5346 19.3333 64.9906 17.5413 64.9906 15.216C64.9906 12.8693 65.5773 10.992 66.7506 9.584C67.924 8.176 69.5026 7.472 71.4866 7.472C73.492 7.472 75.0386 8.10133 76.1266 9.36C77.236 10.5973 77.7906 12.3893 77.7906 14.736C77.7906 17.0613 77.204 18.9387 76.0306 20.368C74.8573 21.776 73.268 22.48 71.2626 22.48ZM71.7426 20.528C72.3826 20.528 73.0653 20.4213 73.7906 20.208C74.4946 19.2053 74.8466 17.6267 74.8466 15.472C74.8466 13.296 74.5266 11.7493 73.8866 10.832C73.268 9.89333 72.2973 9.424 70.9746 9.424C70.484 9.424 69.8226 9.53067 68.9906 9.744C68.2866 10.7253 67.9346 12.304 67.9346 14.48C67.9346 16.656 68.2333 18.2133 68.8306 19.152C69.4493 20.0693 70.42 20.528 71.7426 20.528ZM87.2626 22.48C85.2786 22.48 83.732 21.8507 82.6226 20.592C81.5346 19.3333 80.9906 17.5413 80.9906 15.216C80.9906 12.8693 81.5773 10.992 82.7506 9.584C83.924 8.176 85.5026 7.472 87.4866 7.472C89.492 7.472 91.0386 8.10133 92.1266 9.36C93.236 10.5973 93.7906 12.3893 93.7906 14.736C93.7906 17.0613 93.204 18.9387 92.0306 20.368C90.8573 21.776 89.268 22.48 87.2626 22.48ZM87.7426 20.528C88.3826 20.528 89.0653 20.4213 89.7906 20.208C90.4946 19.2053 90.8466 17.6267 90.8466 15.472C90.8466 13.296 90.5266 11.7493 89.8866 10.832C89.268 9.89333 88.2973 9.424 86.9746 9.424C86.484 9.424 85.8226 9.53067 84.9906 9.744C84.2866 10.7253 83.9346 12.304 83.9346 14.48C83.9346 16.656 84.2333 18.2133 84.8306 19.152C85.4493 20.0693 86.42 20.528 87.7426 20.528ZM96.2866 9.648L96.1906 8.4L99.0706 7.472L100.127 3.824H101.503L101.695 7.472H105.727L105.631 9.168L101.599 9.456V17.424C101.599 18.5547 101.705 19.344 101.919 19.792C102.153 20.2187 102.601 20.432 103.263 20.432C103.945 20.432 104.671 20.3253 105.439 20.112L105.151 21.936C104.425 22.2987 103.476 22.48 102.303 22.48C101.129 22.48 100.255 22.16 99.6786 21.52C99.124 20.88 98.8466 19.7813 98.8466 18.224C98.8466 17.6907 98.9106 14.832 99.0386 9.648H96.2866ZM107.796 21.712L108.66 18.928C110.174 19.9947 111.444 20.528 112.468 20.528C113.492 20.528 114.356 20.2827 115.06 19.792C115.102 19.664 115.124 19.344 115.124 18.832C115.124 18.2987 114.921 17.8507 114.516 17.488C114.132 17.104 113.236 16.5493 111.828 15.824C110.42 15.0987 109.46 14.4373 108.948 13.84C108.457 13.2213 108.212 12.4853 108.212 11.632C108.212 10.4373 108.734 9.44533 109.78 8.656C110.846 7.86667 112.084 7.472 113.492 7.472C114.921 7.472 116.126 7.68533 117.108 8.112L116.34 10.608C114.996 9.81867 113.865 9.424 112.948 9.424C112.052 9.424 111.241 9.63733 110.516 10.064C110.516 10.8107 110.708 11.408 111.092 11.856C111.497 12.304 112.372 12.88 113.716 13.584C115.06 14.2667 116.03 14.9387 116.628 15.6C117.246 16.2613 117.556 17.0187 117.556 17.872C117.556 19.1733 116.99 20.272 115.86 21.168C114.75 22.0427 113.438 22.48 111.924 22.48C110.43 22.48 109.054 22.224 107.796 21.712Z" fill="#F0EEE2"/>
</svg>
